<svg xmlns="http://www.w3.org/2000/svg" xmlns:xlink="http://www.w3.org/1999/xlink" width="40" zoomAndPan="magnify" viewBox="0 0 30 37.92" height="40" preserveAspectRatio="xMidYMid meet" version="1.0"><defs><clipPath id="9a856aeb3d"><path d="M 3.113281 0.683594 L 26.886719 0.683594 L 26.886719 29.300781 L 3.113281 29.300781 Z M 3.113281 0.683594 " clip-rule="nonzero"/></clipPath><clipPath id="46d305aeae"><path d="M 19.457031 1.550781 C 18.035156 0.976562 16.539062 0.683594 15 0.683594 C 13.460938 0.683594 11.964844 0.976562 10.542969 1.550781 C 9.078125 2.144531 7.757812 3.019531 6.632812 4.148438 C 4.429688 6.355469 3.199219 9.285156 3.167969 12.402344 C 3.136719 15.511719 4.304688 18.464844 6.460938 20.707031 L 6.453125 20.710938 L 15 29.257812 L 23.5 20.757812 L 23.492188 20.753906 C 25.667969 18.511719 26.855469 15.558594 26.832031 12.433594 C 26.8125 9.300781 25.582031 6.363281 23.367188 4.148438 C 22.234375 3.019531 20.921875 2.144531 19.457031 1.550781 Z M 19.457031 1.550781 " clip-rule="nonzero"/></clipPath><clipPath id="58551b2be8"><path d="M 0.144531 0.683594 L 23.855469 0.683594 L 23.855469 29.300781 L 0.144531 29.300781 Z M 0.144531 0.683594 " clip-rule="nonzero"/></clipPath><clipPath id="9595c7645c"><path d="M 16.457031 1.550781 C 15.035156 0.976562 13.539062 0.683594 12 0.683594 C 10.460938 0.683594 8.964844 0.976562 7.542969 1.550781 C 6.078125 2.144531 4.757812 3.019531 3.632812 4.148438 C 1.429688 6.355469 0.199219 9.285156 0.167969 12.402344 C 0.136719 15.511719 1.304688 18.464844 3.460938 20.707031 L 3.453125 20.710938 L 12 29.257812 L 20.5 20.757812 L 20.492188 20.753906 C 22.667969 18.511719 23.855469 15.558594 23.832031 12.433594 C 23.8125 9.300781 22.582031 6.363281 20.367188 4.148438 C 19.234375 3.019531 17.921875 2.144531 16.457031 1.550781 Z M 16.457031 1.550781 " clip-rule="nonzero"/></clipPath><clipPath id="513c20b17b"><rect x="0" width="24" y="0" height="30"/></clipPath><clipPath id="4fb03beaf2"><path d="M 4.261719 1.777344 L 25.738281 1.777344 L 25.738281 23.203125 L 4.261719 23.203125 Z M 4.261719 1.777344 " clip-rule="nonzero"/></clipPath><clipPath id="eb1784d8e4"><path d="M 14.996094 1.789062 C 9.089844 1.789062 4.300781 6.578125 4.300781 12.484375 C 4.300781 18.390625 9.089844 23.179688 14.996094 23.179688 C 20.902344 23.179688 25.691406 18.390625 25.691406 12.484375 C 25.691406 6.578125 20.902344 1.789062 14.996094 1.789062 Z M 14.996094 1.789062 " clip-rule="nonzero"/></clipPath><clipPath id="67c97e4c99"><path d="M 0.261719 0.777344 L 21.738281 0.777344 L 21.738281 22.203125 L 0.261719 22.203125 Z M 0.261719 0.777344 " clip-rule="nonzero"/></clipPath><clipPath id="892918cdc9"><path d="M 10.996094 0.789062 C 5.089844 0.789062 0.300781 5.578125 0.300781 11.484375 C 0.300781 17.390625 5.089844 22.179688 10.996094 22.179688 C 16.902344 22.179688 21.691406 17.390625 21.691406 11.484375 C 21.691406 5.578125 16.902344 0.789062 10.996094 0.789062 Z M 10.996094 0.789062 " clip-rule="nonzero"/></clipPath><clipPath id="5c574f87c3"><rect x="0" width="22" y="0" height="23"/></clipPath><clipPath id="ff6a0526d8"><path d="M 7.3125 5.414062 L 23 5.414062 L 23 19.632812 L 7.3125 19.632812 Z M 7.3125 5.414062 " clip-rule="nonzero"/></clipPath></defs><g clip-path="url(#9a856aeb3d)"><g clip-path="url(#46d305aeae)"><g transform="matrix(1, 0, 0, 1, 3, 0.000000000000005773)"><g clip-path="url(#513c20b17b)"><g clip-path="url(#58551b2be8)"><g clip-path="url(#9595c7645c)"><path fill="#faab11" d="M 0.167969 0.683594 L 23.832031 0.683594 L 23.832031 29.25 L 0.167969 29.25 Z M 0.167969 0.683594 " fill-opacity="1" fill-rule="nonzero"/></g></g></g></g></g></g><g clip-path="url(#4fb03beaf2)"><g clip-path="url(#eb1784d8e4)"><g transform="matrix(1, 0, 0, 1, 4, 1)"><g clip-path="url(#5c574f87c3)"><g clip-path="url(#67c97e4c99)"><g clip-path="url(#892918cdc9)"><rect x="-10.6" width="43.2" fill="#ffffff" height="54.6048" y="-9.3424" fill-opacity="1"/></g></g></g></g></g></g><g clip-path="url(#ff6a0526d8)"><path fill="#1800ad" d="M 22.675781 8.855469 C 22.675781 8.828125 22.671875 8.804688 22.664062 8.777344 L 21.605469 5.597656 C 21.566406 5.492188 21.46875 5.417969 21.351562 5.417969 L 8.636719 5.417969 C 8.523438 5.417969 8.421875 5.492188 8.382812 5.597656 L 7.324219 8.777344 C 7.316406 8.804688 7.3125 8.828125 7.3125 8.855469 C 7.3125 8.859375 7.3125 8.859375 7.3125 8.863281 L 7.3125 9.933594 C 7.3125 10.28125 7.449219 10.613281 7.695312 10.863281 C 7.882812 11.046875 8.117188 11.171875 8.371094 11.222656 L 8.371094 18.929688 C 8.371094 19.140625 8.453125 19.339844 8.605469 19.492188 C 8.753906 19.640625 8.953125 19.722656 9.164062 19.722656 L 20.824219 19.722656 C 21.035156 19.722656 21.234375 19.640625 21.382812 19.492188 C 21.535156 19.34375 21.617188 19.140625 21.617188 18.929688 L 21.617188 11.21875 C 22.222656 11.097656 22.675781 10.5625 22.675781 9.921875 L 22.675781 8.863281 C 22.675781 8.859375 22.675781 8.859375 22.675781 8.855469 Z M 8.828125 5.949219 L 21.160156 5.949219 L 22.046875 8.597656 L 7.945312 8.597656 Z M 20.027344 9.921875 C 20.027344 10.359375 19.671875 10.71875 19.234375 10.71875 C 18.796875 10.71875 18.4375 10.359375 18.4375 9.921875 L 18.4375 9.128906 L 20.027344 9.128906 Z M 17.910156 9.914062 C 17.910156 10.125 17.824219 10.332031 17.671875 10.480469 C 17.375 10.78125 16.847656 10.785156 16.550781 10.488281 C 16.402344 10.339844 16.320312 10.140625 16.320312 9.933594 L 16.320312 9.128906 L 17.910156 9.128906 Z M 15.789062 9.914062 C 15.789062 10.125 15.703125 10.332031 15.554688 10.480469 C 15.253906 10.78125 14.730469 10.785156 14.429688 10.488281 C 14.28125 10.339844 14.199219 10.140625 14.199219 9.933594 L 14.199219 9.128906 L 15.789062 9.128906 Z M 13.667969 9.914062 C 13.667969 10.125 13.582031 10.332031 13.433594 10.480469 C 13.132812 10.78125 12.609375 10.785156 12.308594 10.488281 C 12.160156 10.339844 12.082031 10.140625 12.082031 9.933594 L 12.082031 9.128906 L 13.667969 9.128906 Z M 11.550781 9.914062 C 11.550781 10.125 11.464844 10.332031 11.316406 10.480469 C 11.015625 10.78125 10.492188 10.785156 10.191406 10.488281 C 10.042969 10.339844 9.960938 10.140625 9.960938 9.933594 L 9.960938 9.128906 L 11.550781 9.128906 Z M 7.839844 9.933594 L 7.839844 9.128906 L 9.429688 9.128906 L 9.429688 9.914062 C 9.429688 10.125 9.34375 10.332031 9.195312 10.480469 C 8.894531 10.78125 8.371094 10.785156 8.070312 10.488281 C 7.921875 10.339844 7.839844 10.140625 7.839844 9.933594 Z M 10.492188 19.195312 L 10.492188 13.367188 L 13.667969 13.367188 L 13.667969 19.195312 Z M 21.011719 19.117188 C 20.960938 19.167969 20.894531 19.195312 20.824219 19.195312 L 14.199219 19.195312 L 14.199219 13.101562 C 14.199219 12.953125 14.082031 12.835938 13.933594 12.835938 L 10.226562 12.835938 C 10.078125 12.835938 9.960938 12.953125 9.960938 13.101562 L 9.960938 19.195312 L 9.164062 19.195312 C 9.097656 19.195312 9.027344 19.167969 8.980469 19.117188 C 8.929688 19.066406 8.902344 19 8.902344 18.929688 L 8.902344 11.21875 C 9.152344 11.164062 9.382812 11.042969 9.570312 10.855469 C 9.613281 10.8125 9.652344 10.757812 9.691406 10.707031 C 9.730469 10.761719 9.769531 10.8125 9.816406 10.863281 C 10.0625 11.109375 10.394531 11.246094 10.746094 11.246094 C 11.101562 11.246094 11.4375 11.109375 11.6875 10.855469 C 11.734375 10.8125 11.773438 10.757812 11.808594 10.707031 C 11.847656 10.761719 11.886719 10.8125 11.933594 10.863281 C 12.183594 11.109375 12.515625 11.246094 12.867188 11.246094 C 13.222656 11.246094 13.558594 11.109375 13.808594 10.855469 C 13.855469 10.8125 13.890625 10.757812 13.929688 10.707031 C 13.96875 10.761719 14.007812 10.8125 14.054688 10.863281 C 14.304688 11.109375 14.632812 11.246094 14.984375 11.246094 C 15.339844 11.246094 15.675781 11.109375 15.929688 10.855469 C 15.972656 10.8125 16.011719 10.757812 16.046875 10.707031 C 16.085938 10.761719 16.125 10.8125 16.175781 10.863281 C 16.421875 11.109375 16.753906 11.246094 17.105469 11.246094 C 17.460938 11.246094 17.796875 11.109375 18.046875 10.855469 C 18.09375 10.808594 18.132812 10.757812 18.171875 10.707031 C 18.414062 11.03125 18.796875 11.246094 19.234375 11.246094 C 19.667969 11.246094 20.050781 11.035156 20.292969 10.707031 C 20.484375 10.964844 20.761719 11.152344 21.085938 11.21875 L 21.085938 18.929688 C 21.085938 19 21.058594 19.066406 21.011719 19.117188 Z M 22.148438 9.921875 C 22.148438 10.359375 21.792969 10.71875 21.351562 10.71875 C 20.914062 10.71875 20.558594 10.359375 20.558594 9.921875 L 20.558594 9.128906 L 22.148438 9.128906 Z M 22.148438 9.921875 " fill-opacity="1" fill-rule="nonzero"/></g><path fill="#1800ad" d="M 19.761719 12.835938 L 14.996094 12.835938 C 14.847656 12.835938 14.730469 12.953125 14.730469 13.101562 L 14.730469 15.75 C 14.730469 15.898438 14.847656 16.015625 14.996094 16.015625 L 19.761719 16.015625 C 19.910156 16.015625 20.027344 15.898438 20.027344 15.75 L 20.027344 13.101562 C 20.027344 12.953125 19.910156 12.835938 19.761719 12.835938 Z M 19.5 15.484375 L 15.257812 15.484375 L 15.257812 13.367188 L 19.5 13.367188 Z M 19.5 15.484375 " fill-opacity="1" fill-rule="nonzero"/></svg>