<svg xmlns="http://www.w3.org/2000/svg" xmlns:xlink="http://www.w3.org/1999/xlink" width="40" zoomAndPan="magnify" viewBox="0 0 30 37.92" height="40" preserveAspectRatio="xMidYMid meet" version="1.0"><defs><clipPath id="6437c16390"><path d="M 3.113281 0.683594 L 26.886719 0.683594 L 26.886719 29.300781 L 3.113281 29.300781 Z M 3.113281 0.683594 " clip-rule="nonzero"/></clipPath><clipPath id="9dd9415ae8"><path d="M 19.457031 1.550781 C 18.035156 0.976562 16.539062 0.683594 15 0.683594 C 13.460938 0.683594 11.964844 0.976562 10.542969 1.550781 C 9.078125 2.144531 7.757812 3.019531 6.632812 4.148438 C 4.429688 6.355469 3.199219 9.285156 3.167969 12.402344 C 3.136719 15.511719 4.304688 18.464844 6.460938 20.707031 L 6.453125 20.710938 L 15 29.257812 L 23.5 20.757812 L 23.492188 20.753906 C 25.667969 18.511719 26.855469 15.558594 26.832031 12.433594 C 26.8125 9.300781 25.582031 6.363281 23.367188 4.148438 C 22.234375 3.019531 20.921875 2.144531 19.457031 1.550781 Z M 19.457031 1.550781 " clip-rule="nonzero"/></clipPath><clipPath id="444f88b320"><path d="M 0.144531 0.683594 L 23.855469 0.683594 L 23.855469 29.300781 L 0.144531 29.300781 Z M 0.144531 0.683594 " clip-rule="nonzero"/></clipPath><clipPath id="a7c155fe78"><path d="M 16.457031 1.550781 C 15.035156 0.976562 13.539062 0.683594 12 0.683594 C 10.460938 0.683594 8.964844 0.976562 7.542969 1.550781 C 6.078125 2.144531 4.757812 3.019531 3.632812 4.148438 C 1.429688 6.355469 0.199219 9.285156 0.167969 12.402344 C 0.136719 15.511719 1.304688 18.464844 3.460938 20.707031 L 3.453125 20.710938 L 12 29.257812 L 20.5 20.757812 L 20.492188 20.753906 C 22.667969 18.511719 23.855469 15.558594 23.832031 12.433594 C 23.8125 9.300781 22.582031 6.363281 20.367188 4.148438 C 19.234375 3.019531 17.921875 2.144531 16.457031 1.550781 Z M 16.457031 1.550781 " clip-rule="nonzero"/></clipPath><clipPath id="f18bb71679"><rect x="0" width="24" y="0" height="30"/></clipPath><clipPath id="ef749e9e8d"><path d="M 4.261719 1.777344 L 25.738281 1.777344 L 25.738281 23.203125 L 4.261719 23.203125 Z M 4.261719 1.777344 " clip-rule="nonzero"/></clipPath><clipPath id="b6715d005a"><path d="M 14.996094 1.789062 C 9.089844 1.789062 4.300781 6.578125 4.300781 12.484375 C 4.300781 18.390625 9.089844 23.179688 14.996094 23.179688 C 20.902344 23.179688 25.691406 18.390625 25.691406 12.484375 C 25.691406 6.578125 20.902344 1.789062 14.996094 1.789062 Z M 14.996094 1.789062 " clip-rule="nonzero"/></clipPath><clipPath id="416db97de1"><path d="M 0.261719 0.777344 L 21.738281 0.777344 L 21.738281 22.203125 L 0.261719 22.203125 Z M 0.261719 0.777344 " clip-rule="nonzero"/></clipPath><clipPath id="f27f88e9eb"><path d="M 10.996094 0.789062 C 5.089844 0.789062 0.300781 5.578125 0.300781 11.484375 C 0.300781 17.390625 5.089844 22.179688 10.996094 22.179688 C 16.902344 22.179688 21.691406 17.390625 21.691406 11.484375 C 21.691406 5.578125 16.902344 0.789062 10.996094 0.789062 Z M 10.996094 0.789062 " clip-rule="nonzero"/></clipPath><clipPath id="f6239afa61"><rect x="0" width="22" y="0" height="23"/></clipPath><clipPath id="61b58ce92b"><path d="M 9.078125 8.980469 L 21.050781 8.980469 L 21.050781 20.957031 L 9.078125 20.957031 Z M 9.078125 8.980469 " clip-rule="nonzero"/></clipPath></defs><g clip-path="url(#6437c16390)"><g clip-path="url(#9dd9415ae8)"><g transform="matrix(1, 0, 0, 1, 3, 0.000000000000005773)"><g clip-path="url(#f18bb71679)"><g clip-path="url(#444f88b320)"><g clip-path="url(#a7c155fe78)"><path fill="#faab11" d="M 0.167969 0.683594 L 23.832031 0.683594 L 23.832031 29.25 L 0.167969 29.25 Z M 0.167969 0.683594 " fill-opacity="1" fill-rule="nonzero"/></g></g></g></g></g></g><g clip-path="url(#ef749e9e8d)"><g clip-path="url(#b6715d005a)"><g transform="matrix(1, 0, 0, 1, 4, 1)"><g clip-path="url(#f6239afa61)"><g clip-path="url(#416db97de1)"><g clip-path="url(#f27f88e9eb)"><rect x="-10.6" width="43.2" fill="#ffffff" height="54.6048" y="-9.3424" fill-opacity="1"/></g></g></g></g></g></g><g clip-path="url(#61b58ce92b)"><path fill="#000000" d="M 13.199219 18.925781 C 13.1875 18.828125 13.253906 18.738281 13.355469 18.722656 C 13.453125 18.710938 13.542969 18.777344 13.558594 18.875 C 13.617188 19.277344 13.570312 19.667969 13.40625 20.035156 C 13.367188 20.125 13.261719 20.167969 13.167969 20.128906 C 13.078125 20.089844 13.035156 19.984375 13.074219 19.894531 C 13.214844 19.582031 13.25 19.265625 13.199219 18.925781 Z M 15.921875 20.097656 C 15.933594 20.195312 15.863281 20.285156 15.765625 20.296875 C 15.664062 20.308594 15.574219 20.238281 15.5625 20.140625 C 15.5 19.609375 16.132812 19.265625 16.570312 19.597656 C 16.992188 19.917969 16.8125 20.417969 16.394531 20.675781 C 16.128906 20.839844 15.757812 20.914062 15.402344 20.78125 C 14.714844 20.53125 14.558594 19.523438 14.601562 18.886719 C 14.609375 18.789062 14.695312 18.714844 14.792969 18.722656 C 14.894531 18.730469 14.96875 18.8125 14.960938 18.914062 C 14.9375 19.25 14.980469 19.644531 15.105469 19.960938 C 15.199219 20.191406 15.335938 20.378906 15.527344 20.449219 C 15.96875 20.609375 16.441406 20.292969 16.449219 20.050781 C 16.453125 19.90625 16.242188 19.757812 16.054688 19.855469 C 15.964844 19.90625 15.910156 20 15.921875 20.097656 Z M 12.558594 18.914062 C 12.550781 18.8125 12.625 18.730469 12.726562 18.722656 C 12.824219 18.714844 12.910156 18.789062 12.917969 18.886719 C 12.960938 19.523438 12.804688 20.53125 12.117188 20.78125 C 11.644531 20.957031 11.09375 20.773438 10.835938 20.410156 C 10.425781 19.835938 11.097656 19.257812 11.636719 19.542969 C 11.855469 19.660156 11.984375 19.894531 11.957031 20.140625 C 11.945312 20.238281 11.855469 20.308594 11.753906 20.296875 C 11.65625 20.285156 11.585938 20.195312 11.597656 20.097656 C 11.625 19.875 11.347656 19.742188 11.167969 19.878906 C 10.949219 20.046875 11.144531 20.269531 11.3125 20.371094 C 11.5 20.484375 11.75 20.535156 11.992188 20.445312 C 12.183594 20.378906 12.320312 20.191406 12.414062 19.960938 C 12.539062 19.644531 12.578125 19.25 12.558594 18.914062 Z M 13.960938 18.875 C 13.972656 18.777344 14.066406 18.710938 14.164062 18.722656 C 14.265625 18.738281 14.332031 18.828125 14.316406 18.925781 C 14.265625 19.265625 14.304688 19.582031 14.441406 19.894531 C 14.484375 19.984375 14.441406 20.089844 14.347656 20.128906 C 14.257812 20.167969 14.152344 20.125 14.113281 20.035156 C 13.949219 19.667969 13.898438 19.277344 13.960938 18.875 Z M 10.910156 12.628906 C 11.195312 11.519531 12.082031 10.660156 13.210938 10.394531 C 13.210938 10.222656 13.195312 10.085938 13.335938 9.945312 C 13.417969 9.867188 13.527344 9.816406 13.648438 9.816406 L 14.199219 9.816406 L 14.199219 9.6875 C 14.199219 9.296875 14.519531 8.980469 14.910156 8.980469 L 20.335938 8.980469 C 20.730469 8.980469 21.050781 9.296875 21.050781 9.6875 L 21.050781 13.992188 C 21.050781 14.378906 20.730469 14.695312 20.335938 14.695312 L 18.441406 14.695312 L 18.441406 17.640625 C 18.441406 18.019531 18.125 18.332031 17.742188 18.332031 L 9.777344 18.332031 C 9.390625 18.332031 9.078125 18.019531 9.078125 17.640625 L 9.078125 14.3125 C 9.078125 13.933594 9.390625 13.621094 9.777344 13.621094 L 10.363281 13.621094 L 10.363281 13.296875 C 10.363281 12.972656 10.597656 12.699219 10.910156 12.628906 Z M 13.210938 10.765625 C 12.277344 11.011719 11.542969 11.726562 11.28125 12.644531 C 11.566406 12.730469 11.769531 12.992188 11.769531 13.296875 L 11.769531 13.621094 L 14.199219 13.621094 L 14.199219 11.265625 L 13.648438 11.265625 C 13.40625 11.265625 13.210938 11.070312 13.210938 10.832031 Z M 11.410156 13.621094 L 11.410156 13.296875 C 11.410156 12.992188 11.023438 12.867188 10.824219 13.066406 C 10.765625 13.128906 10.726562 13.207031 10.726562 13.296875 L 10.726562 13.621094 Z M 12.753906 15.3125 L 14.765625 15.3125 C 14.867188 15.3125 14.945312 15.390625 14.945312 15.492188 L 14.945312 16.460938 C 14.945312 16.5625 14.863281 16.640625 14.765625 16.640625 L 12.753906 16.640625 C 12.652344 16.640625 12.570312 16.5625 12.570312 16.460938 L 12.570312 15.492188 C 12.570312 15.390625 12.652344 15.3125 12.753906 15.3125 Z M 14.585938 15.667969 L 12.933594 15.667969 L 12.933594 16.285156 L 14.585938 16.285156 Z M 17.097656 13.980469 L 16.847656 14.65625 C 16.820312 14.730469 16.753906 14.773438 16.679688 14.773438 L 10.839844 14.773438 C 10.757812 14.773438 10.691406 14.71875 10.667969 14.648438 L 10.417969 13.980469 L 9.777344 13.980469 C 9.59375 13.980469 9.441406 14.132812 9.441406 14.3125 L 9.441406 17.640625 C 9.441406 17.820312 9.59375 17.972656 9.777344 17.972656 L 10.417969 17.972656 L 10.667969 17.304688 C 10.691406 17.230469 10.757812 17.179688 10.839844 17.179688 L 16.679688 17.179688 C 16.75 17.179688 16.820312 17.222656 16.847656 17.296875 L 17.097656 17.972656 L 17.742188 17.972656 C 17.925781 17.972656 18.078125 17.820312 18.078125 17.640625 L 18.078125 14.3125 C 18.078125 14.132812 17.925781 13.980469 17.742188 13.980469 Z M 10.804688 13.980469 L 10.964844 14.414062 L 16.550781 14.414062 L 16.714844 13.980469 Z M 16.714844 17.972656 L 16.550781 17.535156 L 10.964844 17.535156 L 10.804688 17.972656 Z M 14.558594 13.621094 L 17.742188 13.621094 C 18.125 13.621094 18.441406 13.933594 18.441406 14.3125 L 18.441406 14.335938 L 20.335938 14.335938 C 20.53125 14.335938 20.6875 14.179688 20.6875 13.992188 L 20.6875 9.6875 C 20.6875 9.496094 20.53125 9.339844 20.335938 9.339844 L 14.910156 9.339844 C 14.71875 9.339844 14.558594 9.496094 14.558594 9.6875 Z M 15.242188 10.175781 C 15.140625 10.175781 15.058594 10.097656 15.058594 9.996094 C 15.058594 9.898438 15.140625 9.816406 15.242188 9.816406 L 16.382812 9.816406 C 16.484375 9.816406 16.566406 9.898438 16.566406 9.996094 C 16.566406 10.097656 16.484375 10.175781 16.382812 10.175781 Z M 15.242188 11.503906 C 15.140625 11.503906 15.058594 11.425781 15.058594 11.324219 C 15.058594 11.226562 15.140625 11.148438 15.242188 11.148438 L 16.382812 11.148438 C 16.484375 11.148438 16.566406 11.226562 16.566406 11.324219 C 16.566406 11.425781 16.484375 11.503906 16.382812 11.503906 Z M 14.199219 10.175781 L 13.648438 10.175781 C 13.605469 10.175781 13.570312 10.210938 13.570312 10.25 L 13.570312 10.832031 C 13.570312 10.871094 13.605469 10.90625 13.648438 10.90625 L 14.199219 10.90625 Z M 17.949219 12.523438 L 18.460938 12.019531 L 17.738281 12.019531 C 17.765625 12.203125 17.839844 12.375 17.949219 12.523438 Z M 17.738281 11.660156 L 18.460938 11.660156 L 17.949219 11.15625 C 17.839844 11.300781 17.765625 11.472656 17.738281 11.660156 Z M 18.203125 10.902344 L 18.714844 11.40625 L 18.714844 10.691406 C 18.527344 10.722656 18.351562 10.792969 18.203125 10.902344 Z M 19.078125 10.691406 L 19.078125 11.40625 L 19.589844 10.902344 C 19.441406 10.792969 19.265625 10.722656 19.078125 10.691406 Z M 19.84375 11.15625 L 19.332031 11.660156 L 20.054688 11.660156 C 20.027344 11.472656 19.953125 11.300781 19.84375 11.15625 Z M 20.054688 12.019531 L 19.332031 12.019531 L 19.84375 12.523438 C 19.953125 12.375 20.027344 12.203125 20.054688 12.019531 Z M 19.589844 12.777344 L 19.078125 12.269531 L 19.078125 12.984375 C 19.265625 12.957031 19.441406 12.882812 19.589844 12.777344 Z M 18.714844 12.984375 L 18.714844 12.269531 L 18.203125 12.777344 C 18.351562 12.882812 18.527344 12.957031 18.714844 12.984375 Z M 18.898438 10.320312 C 19.328125 10.320312 19.695312 10.488281 19.984375 10.765625 C 19.984375 10.769531 20.433594 11.152344 20.433594 11.839844 C 20.433594 12.523438 19.984375 12.90625 19.984375 12.914062 C 19.367188 13.507812 18.425781 13.507812 17.808594 12.914062 C 17.808594 12.90625 17.359375 12.523438 17.359375 11.839844 C 17.359375 11.152344 17.808594 10.769531 17.808594 10.765625 C 18.097656 10.488281 18.464844 10.320312 18.898438 10.320312 Z M 18.898438 10.320312 " fill-opacity="1" fill-rule="nonzero"/></g></svg>