<svg xmlns="http://www.w3.org/2000/svg" xmlns:xlink="http://www.w3.org/1999/xlink" width="40" zoomAndPan="magnify" viewBox="0 0 30 30.000001" height="40" preserveAspectRatio="xMidYMid meet" version="1.0"><defs><clipPath id="ad31ad2d64"><path d="M 3.472656 0.664062 L 26.527344 0.664062 L 26.527344 28.414062 L 3.472656 28.414062 Z M 3.472656 0.664062 " clip-rule="nonzero"/></clipPath><clipPath id="f62c8f9bff"><path d="M 19.320312 1.503906 C 17.945312 0.945312 16.492188 0.664062 15 0.664062 C 13.507812 0.664062 12.054688 0.945312 10.679688 1.503906 C 9.257812 2.078125 7.976562 2.929688 6.882812 4.023438 C 4.75 6.164062 3.554688 9.007812 3.523438 12.027344 C 3.496094 15.042969 4.628906 17.90625 6.71875 20.082031 L 6.710938 20.085938 L 15 28.375 L 23.242188 20.132812 L 23.238281 20.128906 C 25.347656 17.953125 26.496094 15.085938 26.476562 12.058594 C 26.453125 9.019531 25.261719 6.171875 23.117188 4.023438 C 22.019531 2.929688 20.742188 2.078125 19.320312 1.503906 Z M 19.320312 1.503906 " clip-rule="nonzero"/></clipPath><clipPath id="391b1eed11"><path d="M 0.503906 0.664062 L 23.496094 0.664062 L 23.496094 28.414062 L 0.503906 28.414062 Z M 0.503906 0.664062 " clip-rule="nonzero"/></clipPath><clipPath id="d763aa8526"><path d="M 16.320312 1.503906 C 14.945312 0.945312 13.492188 0.664062 12 0.664062 C 10.507812 0.664062 9.054688 0.945312 7.679688 1.503906 C 6.257812 2.078125 4.976562 2.929688 3.882812 4.023438 C 1.75 6.164062 0.554688 9.007812 0.523438 12.027344 C 0.496094 15.042969 1.628906 17.90625 3.71875 20.082031 L 3.710938 20.085938 L 12 28.375 L 20.242188 20.132812 L 20.238281 20.128906 C 22.347656 17.953125 23.496094 15.085938 23.476562 12.058594 C 23.453125 9.019531 22.261719 6.171875 20.117188 4.023438 C 19.019531 2.929688 17.742188 2.078125 16.320312 1.503906 Z M 16.320312 1.503906 " clip-rule="nonzero"/></clipPath><clipPath id="69005caebf"><rect x="0" width="24" y="0" height="29"/></clipPath><clipPath id="83556960ee"><path d="M 4.585938 1.722656 L 25.414062 1.722656 L 25.414062 22.5 L 4.585938 22.5 Z M 4.585938 1.722656 " clip-rule="nonzero"/></clipPath><clipPath id="19fef4ca6e"><path d="M 14.996094 1.734375 C 9.265625 1.734375 4.621094 6.378906 4.621094 12.109375 C 4.621094 17.835938 9.265625 22.480469 14.996094 22.480469 C 20.722656 22.480469 25.367188 17.835938 25.367188 12.109375 C 25.367188 6.378906 20.722656 1.734375 14.996094 1.734375 Z M 14.996094 1.734375 " clip-rule="nonzero"/></clipPath><clipPath id="84c66dbdcb"><path d="M 0.585938 0.722656 L 21.414062 0.722656 L 21.414062 21.5 L 0.585938 21.5 Z M 0.585938 0.722656 " clip-rule="nonzero"/></clipPath><clipPath id="cfb8a31f87"><path d="M 10.996094 0.734375 C 5.265625 0.734375 0.621094 5.378906 0.621094 11.109375 C 0.621094 16.835938 5.265625 21.480469 10.996094 21.480469 C 16.722656 21.480469 21.367188 16.835938 21.367188 11.109375 C 21.367188 5.378906 16.722656 0.734375 10.996094 0.734375 Z M 10.996094 0.734375 " clip-rule="nonzero"/></clipPath><clipPath id="27ccf39c8a"><rect x="0" width="22" y="0" height="22"/></clipPath></defs><g clip-path="url(#ad31ad2d64)"><g clip-path="url(#f62c8f9bff)"><g transform="matrix(1, 0, 0, 1, 3, 0.000000000000005718)"><g clip-path="url(#69005caebf)"><g clip-path="url(#391b1eed11)"><g clip-path="url(#d763aa8526)"><path fill="#1800ad" d="M 0.523438 0.664062 L 23.476562 0.664062 L 23.476562 28.363281 L 0.523438 28.363281 Z M 0.523438 0.664062 " fill-opacity="1" fill-rule="nonzero"/></g></g></g></g></g></g><g clip-path="url(#83556960ee)"><g clip-path="url(#19fef4ca6e)"><g transform="matrix(1, 0, 0, 1, 4, 1)"><g clip-path="url(#27ccf39c8a)"><g clip-path="url(#84c66dbdcb)"><g clip-path="url(#cfb8a31f87)"><rect x="-10.6" width="43.2" fill="#ffffff" height="43.200001" y="-7.6" fill-opacity="1"/></g></g></g></g></g></g></svg>